<svg width="278" height="72" viewBox="0 0 278 72" fill="none" xmlns="http://www.w3.org/2000/svg">
<path d="M35.2 6.2002L29.4 1.00019H45.6L39.8 6.2002V71.3002L11.9 18.2002V65.8002L17.7 71.0002H1.5L7.3 65.8002V11.8002L0.5 1.00019H15.1L35.2 38.3002V6.2002Z" fill="black"/>
<path d="M83.4703 71.3002C63.5703 71.3002 48.0703 55.5002 48.0703 36.1002C48.0703 16.6002 63.9703 0.700195 83.4703 0.700195C103.27 0.700195 118.77 16.7002 118.77 35.8002C118.77 55.3002 103.07 71.3002 83.4703 71.3002ZM75.8703 64.1002C93.7703 64.1002 111.57 46.5002 111.57 28.4002C111.57 16.3002 103.17 7.80019 91.0703 7.80019C73.2703 7.80019 55.3703 25.6002 55.3703 43.6002C55.3703 55.8002 63.7703 64.1002 75.8703 64.1002Z" fill="black"/>
<path d="M120.722 15.6002V1.00019H153.722V15.6002L149.222 5.60019H142.822V67.6002L146.622 71.0002H127.922L131.622 67.6002V5.60019H125.222L120.722 15.6002Z" fill="black"/>
<path d="M174.034 67.6002L178.134 71.0002H158.734L162.834 67.6002V4.4002L158.734 1.00019H178.134L174.034 4.4002V67.6002Z" fill="black"/>
<path d="M182.929 15.6002V1.00019H215.929V15.6002L211.429 5.60019H205.029V67.6002L208.829 71.0002H190.129L193.829 67.6002V5.60019H187.429L182.929 15.6002Z" fill="black"/>
<path d="M235.75 4.4002V66.4002H242.35L246.85 56.4002V71.0002H220.55L224.55 67.6002V4.4002L220.55 1.00019H240.15L235.75 4.4002Z" fill="black"/>
<path d="M254.726 4.4002L250.726 1.00019H277.026V15.6002L272.526 5.60019H265.926V32.9002H268.226L272.426 23.5002V46.7002L268.326 37.5002H265.926V66.4002H272.526L277.026 56.4002V71.0002H250.726L254.726 67.6002V4.4002Z" fill="black"/>
</svg>
