<svg width="278" height="72" viewBox="0 0 278 72" fill="none" xmlns="http://www.w3.org/2000/svg">
<path d="M35.2 6.2L29.4 0.999995H45.6L39.8 6.2V71.3L11.9 18.2V65.8L17.7 71H1.5L7.3 65.8V11.8L0.5 0.999995H15.1L35.2 38.3V6.2ZM83.4703 71.3C63.5703 71.3 48.0703 55.5 48.0703 36.1C48.0703 16.6 63.9703 0.699999 83.4703 0.699999C103.27 0.699999 118.77 16.7 118.77 35.8C118.77 55.3 103.07 71.3 83.4703 71.3ZM75.8703 64.1C93.7703 64.1 111.57 46.5 111.57 28.4C111.57 16.3 103.17 7.8 91.0703 7.8C73.2703 7.8 55.3703 25.6 55.3703 43.6C55.3703 55.8 63.7703 64.1 75.8703 64.1ZM120.722 15.6V0.999995H153.722V15.6L149.222 5.6H142.822V67.6L146.622 71H127.922L131.622 67.6V5.6H125.222L120.722 15.6ZM174.034 67.6L178.134 71H158.734L162.834 67.6V4.4L158.734 0.999995H178.134L174.034 4.4V67.6ZM182.929 15.6V0.999995H215.929V15.6L211.429 5.6H205.029V67.6L208.829 71H190.129L193.829 67.6V5.6H187.429L182.929 15.6ZM235.75 4.4V66.4H242.35L246.85 56.4V71H220.55L224.55 67.6V4.4L220.55 0.999995H240.15L235.75 4.4ZM254.726 4.4L250.726 0.999995H277.026V15.6L272.526 5.6H265.926V32.9H268.226L272.426 23.5V46.7L268.326 37.5H265.926V66.4H272.526L277.026 56.4V71H250.726L254.726 67.6V4.4Z" fill="#FEFBEF"/>
</svg>
