<svg width="19" height="18" viewBox="0 0 19 18" fill="none" xmlns="http://www.w3.org/2000/svg">
<path d="M14.7893 14.3811C13.8023 14.3811 13.011 15.1725 13.011 16.1595C13.011 16.6311 13.1983 17.0834 13.5318 17.4169C13.8653 17.7504 14.3177 17.9378 14.7893 17.9378C15.261 17.9378 15.7133 17.7504 16.0468 17.4169C16.3803 17.0834 16.5677 16.6311 16.5677 16.1595C16.5677 15.6878 16.3803 15.2355 16.0468 14.902C15.7133 14.5685 15.261 14.3811 14.7893 14.3811ZM0.5625 0.154297V1.93265H2.34085L5.54188 8.68149L4.3326 10.86C4.19923 11.1089 4.1192 11.4024 4.1192 11.7136C4.1192 12.1852 4.30656 12.6376 4.64007 12.9711C4.97357 13.3046 5.4259 13.4919 5.89755 13.4919H16.5677V11.7136H6.27101C6.21205 11.7136 6.15551 11.6902 6.11382 11.6485C6.07213 11.6068 6.04871 11.5502 6.04871 11.4913C6.04871 11.4468 6.0576 11.4113 6.07539 11.3846L6.87565 9.93523H13.5C14.1669 9.93523 14.7537 9.56177 15.0561 9.01937L18.2393 3.26641C18.3015 3.12414 18.346 2.97298 18.346 2.82182C18.346 2.586 18.2523 2.35983 18.0856 2.19308C17.9188 2.02633 17.6927 1.93265 17.4568 1.93265H4.30593L3.4701 0.154297M5.89755 14.3811C4.91057 14.3811 4.1192 15.1725 4.1192 16.1595C4.1192 16.6311 4.30656 17.0834 4.64007 17.4169C4.97357 17.7504 5.4259 17.9378 5.89755 17.9378C6.3692 17.9378 6.82153 17.7504 7.15504 17.4169C7.48854 17.0834 7.6759 16.6311 7.6759 16.1595C7.6759 15.6878 7.48854 15.2355 7.15504 14.902C6.82153 14.5685 6.3692 14.3811 5.89755 14.3811Z" fill="#FEFBEF"/>
</svg>
