<svg width="16" height="16" viewBox="0 0 16 16" fill="none" xmlns="http://www.w3.org/2000/svg">
<path fill-rule="evenodd" clip-rule="evenodd" d="M0.43934 0.43934C1.02513 -0.146447 1.97487 -0.146447 2.56066 0.43934L8 5.87868L13.4393 0.43934C14.0251 -0.146447 14.9749 -0.146447 15.5607 0.43934C16.1464 1.02513 16.1464 1.97487 15.5607 2.56066L10.1213 8L15.5607 13.4393C16.1464 14.0251 16.1464 14.9749 15.5607 15.5607C14.9749 16.1464 14.0251 16.1464 13.4393 15.5607L8 10.1213L2.56066 15.5607C1.97487 16.1464 1.02513 16.1464 0.43934 15.5607C-0.146447 14.9749 -0.146447 14.0251 0.43934 13.4393L5.87868 8L0.43934 2.56066C-0.146447 1.97487 -0.146447 1.02513 0.43934 0.43934Z" fill="#101010"/>
</svg>
