<svg width="20" height="20" viewBox="0 0 20 20" fill="none" xmlns="http://www.w3.org/2000/svg">
<path d="M18.78 18.78L12.8533 12.8533M1 7.91444C1 8.82246 1.17885 9.72159 1.52633 10.5605C1.87381 11.3994 2.38313 12.1616 3.02519 12.8037C3.66726 13.4458 4.4295 13.9551 5.2684 14.3026C6.1073 14.65 7.00643 14.8289 7.91444 14.8289C8.82246 14.8289 9.72159 14.65 10.5605 14.3026C11.3994 13.9551 12.1616 13.4458 12.8037 12.8037C13.4458 12.1616 13.9551 11.3994 14.3026 10.5605C14.65 9.72159 14.8289 8.82246 14.8289 7.91444C14.8289 7.00643 14.65 6.1073 14.3026 5.2684C13.9551 4.4295 13.4458 3.66726 12.8037 3.02519C12.1616 2.38313 11.3994 1.87381 10.5605 1.52633C9.72159 1.17885 8.82246 1 7.91444 1C7.00643 1 6.1073 1.17885 5.2684 1.52633C4.4295 1.87381 3.66726 2.38313 3.02519 3.02519C2.38313 3.66726 1.87381 4.4295 1.52633 5.2684C1.17885 6.1073 1 7.00643 1 7.91444Z" stroke="#FEFBEF" stroke-width="2" stroke-linecap="round" stroke-linejoin="round"/>
</svg>
